<?xml version="1.0" encoding="UTF-8"?>
<svg xmlns="http://www.w3.org/2000/svg" xmlns:xlink="http://www.w3.org/1999/xlink" width="25pt" height="28pt" viewBox="0 0 25 28" version="1.1">
<g id="surface1">
<path style=" stroke:none;fill-rule:nonzero;fill:rgb(0%,0%,0%);fill-opacity:1;" d="M 19.644531 24.5 L 1.785156 24.5 L 1.785156 8.75 L 19.644531 8.75 L 19.644531 14 L 21.429688 14 L 21.429688 5.25 C 21.429688 4.292969 20.621094 3.5 19.644531 3.5 L 14.285156 3.5 C 14.285156 1.558594 12.695312 0 10.714844 0 C 8.734375 0 7.144531 1.558594 7.144531 3.5 L 1.785156 3.5 C 0.808594 3.5 0 4.292969 0 5.25 L 0 24.5 C 0 25.457031 0.808594 26.25 1.785156 26.25 L 19.644531 26.25 C 20.621094 26.25 21.429688 25.457031 21.429688 24.5 L 21.429688 21 L 19.644531 21 Z M 5.355469 5.25 C 6.167969 5.25 6.167969 5.25 7.144531 5.25 C 8.121094 5.25 8.929688 4.457031 8.929688 3.5 C 8.929688 2.542969 9.738281 1.75 10.714844 1.75 C 11.691406 1.75 12.5 2.542969 12.5 3.5 C 12.5 4.457031 13.394531 5.25 14.285156 5.25 C 15.179688 5.25 15.207031 5.25 16.070312 5.25 C 16.9375 5.25 17.855469 6.042969 17.855469 7 L 3.570312 7 C 3.570312 5.933594 4.351562 5.25 5.355469 5.25 Z M 3.570312 19.25 L 7.144531 19.25 L 7.144531 17.5 L 3.570312 17.5 Z M 16.070312 15.75 L 16.070312 12.25 L 8.929688 17.5 L 16.070312 22.75 L 16.070312 19.25 L 25 19.25 L 25 15.75 Z M 3.570312 22.75 L 8.929688 22.75 L 8.929688 21 L 3.570312 21 Z M 12.5 10.5 L 3.570312 10.5 L 3.570312 12.25 L 12.5 12.25 Z M 7.144531 14 L 3.570312 14 L 3.570312 15.75 L 7.144531 15.75 Z M 7.144531 14 "/>
</g>
</svg>
